# xmcd CD database file
#
# Track frame offsets:
#	187
#	21535
#	38002
#
# Disc length: 789 seconds
#
# Revision: 0
# Processed by: cddbd v1.5PL3 Copyright (c) Steve Scherf et al.
# Submitted via: CDex 1.51
#
DISCID=1e031303
DTITLE=CASCADE - S.O.S ロマンティック
DYEAR=1998
DGENRE=Rock
TTITLE0=S.O.S ロマンティック
TTITLE1=チェルシー (Live at 武道館)
TTITLE2=S.O.S ロマンティック (Instrumental)
EXTD=YEAR: 1998
EXTT0=
EXTT1=
EXTT2=
PLAYORDER=
